<svg xmlns="http://www.w3.org/2000/svg" viewBox="0 0 946 212" preserveAspectRatio="xMidYMid meet" role="img" aria-labelledby="aireca-title">
  <title id="aireca-title">AIReca</title>
  <path fill="#fff" d="M2 208 102 4c1-3 4-3 6 1l102 203h-31L105 60 33 208H2Zm229 0V2h27v206h-27Zm71 0V2h89c44 0 70 25 70 65 0 33-21 57-56 64l59 77h-35l-73-97h35c26 0 43-17 43-44s-17-41-43-41h-61v182h-28Z"/>
  <path fill="#fff" d="M49 131h112v24H49z"/>
  <path fill="#fff" fill-rule="evenodd" d="M630 139H498c3 29 24 49 58 49 21 0 37-7 47-20l16 15c-11 14-24 21-38 24-13 2-24 3-35 3-44 0-74-32-74-78 0-45 32-79 79-79s79 31 79 79v7Zm-132-18h107c-3-27-21-46-52-46-30 0-49 17-55 40v6Z"/>
  <path fill="#fff" d="m790 84-19 14c-11-15-25-23-45-23-33 0-56 24-56 57 0 32 24 55 56 55 19 0 33-7 47-21l17 13c-15 19-36 31-63 31-49 0-84-34-84-78 0-45 34-79 83-79 28 0 49 11 64 31Z"/>
  <path fill="#fff" fill-rule="evenodd" d="M944 208h-25v-22c-11 15-29 24-53 24-37 0-61-18-61-44 0-29 21-46 61-46 18 0 36 2 52 5v-21c0-19-13-29-41-29-21 0-38 7-52 19l-13-15c17-17 38-26 66-26 42 0 66 19 66 51v104Zm-26-64c-12-3-29-5-52-5-22 0-35 10-35 25 0 15 14 26 35 26 25 0 52-12 52-31v-15Z"/>
</svg>
